{"asset":{"version":"2.0","generator":"babylon.js glTF exporter for 3ds max 2017 v1.3.33"},"scene":0,"scenes":[{"nodes":[0,1],"extensions":{}}],"nodes":[{"mesh":0,"translation":[-9.569378,1.275917,5.57721052E-08],"rotation":[0.7071068,0.0,0.0,0.7071067],"scale":[1.0,1.0,1.0],"name":"Text001"},{"translation":[0.0,0.0,0.0],"rotation":[0.0,0.0,0.0,1.0],"scale":[1.0,1.0,1.0],"name":"Default light"}],"meshes":[{"primitives":[{"attributes":{"POSITION":1,"NORMAL":2},"indices":0,"mode":4,"material":0}],"name":"Text001"}],"accessors":[{"bufferView":0,"componentType":5123,"count":4368,"type":"SCALAR","name":"accessorIndices"},{"bufferView":1,"componentType":5126,"count":4368,"max":[93.6000061,30.0,1.1],"min":[-93.59999,-8.95283847E-13,-65.2000046],"type":"VEC3","name":"accessorPositions"},{"bufferView":1,"byteOffset":52416,"componentType":5126,"count":4368,"type":"VEC3","name":"accessorNormals"}],"bufferViews":[{"buffer":0,"byteLength":8736,"name":"bufferViewScalar"},{"buffer":0,"byteOffset":8736,"byteLength":104832,"byteStride":12,"name":"bufferViewFloatVec3"}],"buffers":[{"uri":"armodel.bin","byteLength":113568}],"materials":[{"pbrMetallicRoughness":{"baseColorFactor":[0.2900327,0.19199349,1.0,1.0],"metallicFactor":0.0,"roughnessFactor":0.9},"emissiveFactor":[0.0,0.0,0.0],"alphaMode":"OPAQUE","name":"01 - Default"}]}